<?xml version="1.0" standalone="no"?>
<!DOCTYPE svg PUBLIC "-//W3C//DTD SVG 20010904//EN"
 "http://www.w3.org/TR/2001/REC-SVG-20010904/DTD/svg10.dtd">
<svg version="1.0" xmlns="http://www.w3.org/2000/svg"
 width="400.000000pt" height="400.000000pt" viewBox="0 0 400.000000 400.000000"
 preserveAspectRatio="xMidYMid meet">
<metadata>
Created by potrace 1.11, written by Peter Selinger 2001-2013
</metadata>
<g transform="translate(0.000000,400.000000) scale(0.100000,-0.100000)"
fill="#000000" stroke="none">
<path d="M3170 3542 c-19 -9 -71 -50 -115 -91 -170 -159 -146 -143 -199 -131
-73 16 -233 13 -294 -5 l-53 -16 -66 58 c-120 107 -226 183 -255 183 -26 0
-28 -3 -28 -37 0 -21 19 -83 41 -138 22 -55 54 -133 70 -174 l30 -74 -24 -36
c-42 -64 -65 -116 -78 -177 -10 -52 -10 -66 5 -111 10 -29 38 -78 63 -110 86
-111 101 -168 64 -250 -26 -55 -83 -95 -184 -129 -125 -41 -268 -106 -345
-158 -169 -112 -314 -324 -372 -541 -50 -193 -48 -382 11 -664 16 -79 27 -146
25 -149 -3 -2 -19 0 -35 6 -17 6 -31 9 -31 6 0 -7 -26 14 -80 66 -40 37 -52
58 -70 119 -20 64 -22 88 -17 175 4 56 18 151 32 211 64 278 52 435 -42 569
-49 69 -100 98 -182 104 -61 4 -74 2 -120 -23 -52 -29 -105 -84 -135 -142 -37
-73 -8 -196 54 -228 48 -25 70 -19 119 33 55 59 77 68 102 46 27 -25 24 -95
-11 -261 -57 -272 -58 -455 -1 -619 38 -110 83 -184 151 -248 110 -101 204
-132 440 -146 204 -12 1284 -13 1325 -2 40 11 60 48 51 93 -4 25 -25 55 -70
101 -73 76 -72 69 -82 323 -7 175 3 270 37 336 10 21 57 98 102 171 150 239
170 301 171 508 1 124 -2 144 -33 255 -25 86 -35 141 -35 195 0 80 -2 75 89
245 35 67 37 74 32 144 -4 64 -11 87 -55 173 l-50 100 20 71 c11 40 35 118 54
173 35 105 43 184 21 202 -9 8 -22 6 -47 -6z"/>
</g>
</svg>
