<?xml version="1.0" standalone="no"?>
<!DOCTYPE svg PUBLIC "-//W3C//DTD SVG 20010904//EN"
 "http://www.w3.org/TR/2001/REC-SVG-20010904/DTD/svg10.dtd">
<svg version="1.0" xmlns="http://www.w3.org/2000/svg"
 width="400.000000pt" height="400.000000pt" viewBox="0 0 400.000000 400.000000"
 preserveAspectRatio="xMidYMid meet">
<metadata>
Created by potrace 1.11, written by Peter Selinger 2001-2013
</metadata>
<g transform="translate(0.000000,400.000000) scale(0.100000,-0.100000)"
fill="#000000" stroke="none">
<path d="M1685 3969 c-711 -43 -1221 -510 -1475 -1352 -115 -380 -164 -746
-165 -1217 0 -338 10 -433 67 -624 118 -399 379 -647 773 -736 118 -27 362
-37 510 -21 584 63 988 324 1201 776 65 138 65 136 -3 163 l-58 24 -15 -23
c-170 -259 -427 -414 -771 -465 -135 -20 -349 -15 -444 11 -249 66 -368 218
-422 541 -28 169 -25 638 5 868 105 795 370 1433 702 1691 247 191 553 160
655 -67 37 -81 45 -201 20 -298 -33 -128 -118 -267 -190 -309 -19 -11 -19 -12
15 -42 153 -136 413 -127 528 19 67 84 96 193 96 362 0 136 -19 222 -72 324
-140 269 -482 403 -957 375z"/>
<path d="M1745 2611 c-93 -15 -180 -43 -284 -92 -184 -87 -320 -208 -388 -347
-31 -62 -37 -86 -41 -158 -7 -128 24 -192 109 -228 34 -14 139 -33 139 -25 0
2 -7 22 -15 44 -8 22 -14 76 -14 120 -1 287 150 490 419 562 44 12 103 18 185
18 115 0 122 -1 174 -30 98 -54 144 -149 145 -295 1 -267 -184 -547 -386 -585
l-36 -7 14 69 c8 37 46 216 85 397 39 180 68 330 65 333 -2 3 -81 -6 -175 -18
-133 -18 -172 -26 -176 -38 -4 -16 -325 -1511 -325 -1518 0 -1 78 -3 173 -3
l172 0 69 323 c37 177 70 331 73 343 4 18 14 22 76 27 102 9 179 31 277 79 68
33 102 58 170 127 131 132 190 267 190 437 0 223 -130 388 -355 449 -69 18
-267 28 -340 16z"/>
<path d="M3617 2546 c-37 -12 -99 -44 -137 -70 -88 -61 -237 -216 -320 -336
-106 -151 -86 -137 -171 -117 -282 66 -557 -13 -535 -153 8 -52 35 -82 107
-118 57 -29 80 -34 194 -44 72 -6 131 -12 133 -13 1 -1 -13 -36 -32 -78 -85
-185 -136 -370 -136 -490 0 -146 44 -193 197 -213 l51 -6 -14 43 c-24 69 1
272 61 495 32 119 75 246 87 262 6 7 35 12 72 12 33 0 104 5 156 10 52 5 96 7
98 5 2 -2 -23 -133 -57 -292 -34 -158 -61 -294 -61 -300 0 -10 33 -13 134 -13
131 0 134 1 139 23 3 12 33 153 67 312 34 160 64 293 68 297 4 4 25 8 47 10
36 3 40 6 46 37 l7 33 -44 -6 c-24 -3 -44 -4 -44 -3 0 2 34 160 74 353 41 192
72 352 68 355 -11 11 -109 29 -150 29 -20 0 -67 -11 -105 -24z m-42 -138 c-3
-13 -32 -148 -65 -302 -32 -153 -61 -280 -63 -283 -4 -4 -171 81 -225 114
l-22 13 36 73 c79 156 183 298 272 369 54 44 75 48 67 16z m-613 -429 c29 -6
57 -15 61 -19 5 -4 -13 -45 -39 -90 l-47 -82 -101 4 c-136 6 -202 35 -220 95
-10 32 30 72 89 88 62 17 187 19 257 4z m353 -130 l90 -43 -85 -7 c-47 -4
-109 -7 -137 -8 -59 -1 -57 -8 -19 81 19 43 10 45 151 -23z"/>
</g>
</svg>
